<svg width="320" height="320" viewBox="0 0 320 320" fill="none" xmlns="http://www.w3.org/2000/svg">
<rect x="40" y="310" width="10" height="10" fill="#13B6A4"/>
<rect x="10" y="250" width="10" height="10" fill="#059683"/>
<path fill-rule="evenodd" clip-rule="evenodd" d="M20 200H10V210V220V230V240H20V230V220V210V200Z" fill="#059683"/>
<path fill-rule="evenodd" clip-rule="evenodd" d="M20 160H10V170V180V190V200H20V190V180V170V160Z" fill="#14B7A5"/>
<rect x="40" y="160" width="10" height="10" fill="#14B7A5"/>
<rect x="40" y="80" width="10" height="10" fill="#7E9874"/>
<rect x="50" y="70" width="10" height="10" fill="#7E9874"/>
<rect x="70" y="60" width="10" height="10" fill="#7E9874"/>
<rect x="70" y="50" width="10" height="10" fill="#C56C2F"/>
<rect x="70" y="40" width="10" height="10" fill="#EA8134"/>
<rect x="60" y="30" width="10" height="10" fill="#EA8134"/>
<rect x="50" y="20" width="10" height="10" fill="#EA8134"/>
<rect x="160" y="60" width="10" height="10" fill="#7E9874"/>
<rect x="160" y="50" width="10" height="10" fill="#EA8134"/>
<rect x="160" y="10" width="10" height="10" fill="#EA8134"/>
<rect x="50" y="60" width="10" height="10" fill="#F7BE9B"/>
<rect x="50" y="50" width="10" height="10" fill="#FFE1CE"/>
<rect x="50" y="40" width="10" height="10" fill="#FFE1CE"/>
<rect x="40" y="70" width="10" height="10" fill="#C56C2F"/>
<rect x="40" y="60" width="10" height="10" fill="#DF8541"/>
<path fill-rule="evenodd" clip-rule="evenodd" d="M60 0H50V10V20H40V30V40V50V60H50V50V40V30V20H60V10V0Z" fill="#FD9843"/>
<rect x="40" y="10" width="10" height="10" fill="#DF8541"/>
<rect x="80" y="150" width="10" height="10" fill="#26C8BB"/>
<rect x="100" y="150" width="10" height="10" fill="#26C8BB"/>
<rect x="120" y="150" width="10" height="10" fill="#26C8BB"/>
<rect x="140" y="150" width="10" height="10" fill="#26C8BB"/>
<rect x="160" y="150" width="10" height="10" fill="#26C8BB"/>
<rect x="140" y="130" width="10" height="10" fill="#39D4CA"/>
<rect x="150" y="120" width="10" height="10" fill="#39D4CA"/>
<path fill-rule="evenodd" clip-rule="evenodd" d="M160 100H150V110H160V120H170V110H160V100Z" fill="#26C8BB"/>
<path fill-rule="evenodd" clip-rule="evenodd" d="M170 70H70V80H160V90H180V80H170V70Z" fill="#26C8BB"/>
<rect x="160" y="130" width="10" height="10" fill="#26C8BB"/>
<rect x="90" y="210" width="50" height="10" fill="#0DA28F"/>
<rect x="90" y="200" width="10" height="10" fill="#0DA28F"/>
<rect x="130" y="200" width="10" height="10" fill="#0DA28F"/>
<rect x="30" y="290" width="10" height="10" fill="#059683"/>
<rect x="20" y="280" width="10" height="10" fill="#059683"/>
<rect x="50" y="310" width="10" height="10" fill="#059683"/>
<rect x="70" y="310" width="10" height="10" fill="#059582"/>
<rect x="110" y="290" width="10" height="10" fill="#25C7BA"/>
<rect x="90" y="290" width="10" height="10" fill="#25C7BA"/>
<rect x="80" y="280" width="10" height="10" fill="#25C7BA"/>
<rect x="50" y="270" width="10" height="10" fill="#38D3C9"/>
<rect x="60" y="270" width="10" height="10" fill="#38D3C9"/>
<rect x="80" y="270" width="10" height="10" fill="#38D3C9"/>
<rect x="100" y="270" width="10" height="10" fill="#38D3C9"/>
<rect x="100" y="280" width="10" height="10" fill="#25C7BA"/>
<rect x="120" y="280" width="10" height="10" fill="#25C7BA"/>
<rect x="140" y="270" width="10" height="10" fill="#25C7BA"/>
<rect x="200" y="260" width="10" height="10" fill="#F19B49"/>
<rect x="200" y="250" width="10" height="10" fill="#BD8E51"/>
<rect x="200" y="230" width="10" height="10" fill="#26C8BB"/>
<rect x="200" y="210" width="10" height="10" fill="#26C8BB"/>
<rect x="200" y="190" width="10" height="10" fill="#38D4C9"/>
<rect x="180" y="170" width="10" height="10" fill="#14B7A5"/>
<path fill-rule="evenodd" clip-rule="evenodd" d="M200 100H190V110V120V130V140V150V160V170H200V160V150V140H210V130V120H200V110V100Z" fill="#14B7A5"/>
<rect x="190" y="90" width="10" height="10" fill="#059683"/>
<rect x="180" y="80" width="10" height="10" fill="#059683"/>
<rect x="170" y="70" width="10" height="10" fill="#059683"/>
<rect x="170" y="60" width="10" height="10" fill="#F6BD9A"/>
<rect x="170" y="50" width="10" height="10" fill="#FFE1CE"/>
<rect x="170" y="40" width="10" height="10" fill="#FFE1CE"/>
<path fill-rule="evenodd" clip-rule="evenodd" d="M210 140H200V150V160V170H190V180H210V170V160V150V140Z" fill="#26C8BB"/>
<path fill-rule="evenodd" clip-rule="evenodd" d="M150 200H140V210V220H150V210V200Z" fill="#38D4C9"/>
<rect x="140" y="190" width="30" height="10" fill="#14B7A5"/>
<rect x="170" y="190" width="10" height="10" fill="#38D4C9"/>
<rect x="170" y="180" width="10" height="10" fill="#14B7A5"/>
<path fill-rule="evenodd" clip-rule="evenodd" d="M170 90H180V100V110V120V130V140V150V160V170H170V180H60V170V160H70V170H80V160H90V170H100V160H110V170H120V160H130V170H140V160H150V170H160V160H170V150H160V140H170V130V120V110V100V90Z" fill="#14B7A5"/>
<path fill-rule="evenodd" clip-rule="evenodd" d="M60 140H50V150V160V170H60V160H70V150H60V140Z" fill="#25C7BA"/>
<path fill-rule="evenodd" clip-rule="evenodd" d="M60 90H50V100V110V120V130V140H60V130V120V110V100V90Z" fill="#39D4CA"/>
<rect x="60" y="60" width="9.99998" height="10" fill="#AB8362"/>
<path fill-rule="evenodd" clip-rule="evenodd" d="M60 30H50V40H60V50V60H70V50V40H60V30Z" fill="#FEEEE5"/>
<rect x="150" y="60" width="9.99998" height="10" fill="#AB8362"/>
<path fill-rule="evenodd" clip-rule="evenodd" d="M160 40H150V50V60H160V50V40Z" fill="#F38E3D"/>
<rect x="150" y="30" width="9.99998" height="10" fill="#DF8541"/>
<rect x="200" y="30" width="9.99998" height="10" fill="#BF8E6C"/>
<rect x="190" y="20" width="9.99998" height="10" fill="#DF8541"/>
<rect x="140" y="60" width="9.99998" height="10" fill="#BF8F6D"/>
<rect x="210" y="50" width="9.99998" height="10" fill="#BF8F6D"/>
<rect x="80" y="60" width="20" height="10" fill="#AB8362"/>
<rect x="90" y="50" width="10" height="10" fill="#BF8F6D"/>
<rect x="70" y="160" width="10" height="10" fill="#25C7BA"/>
<rect x="90" y="160" width="10" height="10" fill="#25C7BA"/>
<rect x="110" y="160" width="10" height="10" fill="#25C7BA"/>
<rect x="130" y="160" width="10" height="10" fill="#25C7BA"/>
<rect x="150" y="160" width="10" height="10" fill="#25C7BA"/>
<path fill-rule="evenodd" clip-rule="evenodd" d="M170 90H160V100H170V90ZM80 140H70V150H80V140ZM90 140H100V150H90V140ZM120 140H110V150H120V140ZM130 160V150V140H140V150V160H130ZM150 160V150V140H160V150V160H150Z" fill="#38D4C9"/>
<rect x="100" y="200" width="30" height="10" fill="#14B7A5"/>
<rect x="100" y="190" width="30" height="10" fill="#14B7A5"/>
<rect x="70" y="200" width="20" height="10" fill="#38D4C9"/>
<rect x="60" y="190" width="30" height="10" fill="#14B7A5"/>
<rect x="130" y="270" width="10" height="10" fill="#38D3C8"/>
<rect x="70" y="290" width="10" height="10" fill="#25C7BA"/>
<rect x="40" y="260" width="10" height="10" fill="#39D4CA"/>
<rect x="70" y="270" width="10" height="10" fill="#26C8BB"/>
<rect x="90" y="270" width="10" height="10" fill="#26C8BB"/>
<rect x="110" y="270" width="20" height="10" fill="#26C8BB"/>
<path fill-rule="evenodd" clip-rule="evenodd" d="M30 260H20V270H30V280H40V290H50V300H60V290H70V280H50V270H40V260H30Z" fill="#26C8BB"/>
<path fill-rule="evenodd" clip-rule="evenodd" d="M30 140H20V150V160V170V180V190V200V210V220V230V240V250V260H30H40V250H30V240V230V220V210V200V190V180V170V160V150V140Z" fill="#39D4CA"/>
<path fill-rule="evenodd" clip-rule="evenodd" d="M30 130H20V140H10V150V160H20V150V140H30V130Z" fill="#26C8BB"/>
<rect x="20" y="120" width="10" height="10" fill="#14B7A5"/>
<rect x="20" y="110" width="10" height="10" fill="#14B7A5"/>
<rect x="20" y="100" width="10" height="10" fill="#AB8362"/>
<rect x="20" y="90" width="10" height="10" fill="#AB8362"/>
<path fill-rule="evenodd" clip-rule="evenodd" d="M40 60H30V70H20V80V90H30V80H40V70V60Z" fill="#E58C48"/>
<path fill-rule="evenodd" clip-rule="evenodd" d="M40 40H30V50V60H40V50V40Z" fill="#F38E3E"/>
<rect x="30" y="30" width="9.99998" height="10" fill="#DF8541"/>
<rect x="80" y="30" width="9.99998" height="10" fill="#BF8F6D"/>
<path fill-rule="evenodd" clip-rule="evenodd" d="M70 10H60V20V30H70V40H80V50V60H90V50V40H80V30V20H70V10Z" fill="#F38E3D"/>
<rect x="50" y="180" width="10" height="10" fill="#14B7A5"/>
<path fill-rule="evenodd" clip-rule="evenodd" d="M70 70H60V80H50V90H40V100H30V110V120V130V140H40V130V120V110L40 100H50V90H60V80H70V70Z" fill="#0DA28F"/>
<rect x="30" y="90" width="9.99998" height="10" fill="#7E9874"/>
<rect x="30" y="80" width="9.99998" height="10" fill="#D29980"/>
<path fill-rule="evenodd" clip-rule="evenodd" d="M20 270H30V280H20V270ZM40 290V280H30V290H20V300H30V290H40ZM50 300H40V290H50V300ZM70 290H60V300H50V310H130V300V290H140V280H130V290H120V280H110V290H100V280H90V290H80V280H70V290ZM70 290H80V300H70V290ZM90 290H100V300H90V290ZM110 290H120V300H110V290Z" fill="#14B7A5"/>
<rect x="130" y="310" width="10" height="10" fill="#FCF1E7"/>
<rect x="130" y="300" width="10" height="10" fill="#F6E0CB"/>
<rect x="140" y="310" width="10" height="10" fill="#E5CBB6"/>
<rect x="160" y="310" width="10" height="10" fill="#E0C1A4"/>
<rect x="160" y="300" width="10" height="10" fill="#FEF8F3"/>
<rect x="160" y="280" width="10" height="10" fill="#FEF3E9"/>
<rect x="170" y="280" width="10" height="10" fill="#FDF3E9"/>
<rect x="180" y="280" width="10" height="10" fill="#F9CDA4"/>
<rect x="170" y="310" width="10" height="10" fill="#ECCEB4"/>
<rect x="170" y="300" width="10" height="10" fill="#FDFBF8"/>
<rect x="180" y="310" width="10" height="10" fill="#E4C0A4"/>
<rect x="180" y="300" width="10" height="10" fill="#FEF2E7"/>
<rect x="190" y="310" width="10" height="10" fill="#EFDAC8"/>
<rect x="190" y="300" width="10" height="10" fill="#FEF3E8"/>
<rect x="200" y="310" width="10" height="10" fill="#D28D5E"/>
<rect x="200" y="300" width="10" height="10" fill="#FCCB9F"/>
<rect x="210" y="310" width="20" height="10" fill="#DA9668"/>
<rect x="210" y="300" width="10" height="10" fill="#F6BC99"/>
<rect x="190" y="280" width="10" height="10" fill="#F6BC99"/>
<rect x="180" y="290" width="10" height="10" fill="#FEE6D0"/>
<rect x="150" y="290" width="30" height="10" fill="#FDF2E7"/>
<rect x="140" y="290" width="10" height="10" fill="#F5DAC2"/>
<rect x="150" y="280" width="10" height="10" fill="#E0C096"/>
<rect x="130" y="290" width="10" height="10" fill="#97AF7F"/>
<rect x="140" y="280" width="10" height="10" fill="#97AF7F"/>
<rect x="160" y="270" width="10" height="10" fill="#94A77B"/>
<rect x="160" y="260" width="10" height="10" fill="#26C8BB"/>
<rect x="220" y="270" width="10" height="10" fill="#F28D3C"/>
<rect x="270" y="250" width="10" height="10" fill="#F48D40"/>
<rect x="270" y="230" width="10" height="10" fill="#C79152"/>
<rect x="270" y="220" width="10" height="10" fill="#888057"/>
<path fill-rule="evenodd" clip-rule="evenodd" d="M260 120H250V130V140H260V150V160H270V170V180V190V200V210V220H280V210V200V190V180V170V160V150H270V140H260V130V120Z" fill="#258674"/>
<rect x="230" y="120" width="10" height="10" fill="#258674"/>
<rect x="220" y="110" width="10" height="10" fill="#258674"/>
<rect x="230" y="110" width="20" height="10" fill="#059683"/>
<rect x="260" y="130" width="10" height="10" fill="#069582"/>
<rect x="170" y="270" width="10" height="10" fill="#FAE7D3"/>
<rect x="170" y="260" width="10" height="10" fill="#94A77B"/>
<rect x="170" y="250" width="10" height="10" fill="#36D3C8"/>
<rect x="230" y="260" width="10" height="10" fill="#F48D3C"/>
<rect x="280" y="240" width="10" height="10" fill="#F19E61"/>
<rect x="280" y="230" width="10" height="10" fill="#C56C2F"/>
<rect x="280" y="220" width="10" height="10" fill="#BE9776"/>
<rect x="180" y="270" width="10" height="10" fill="#F6BD9A"/>
<rect x="180" y="260" width="10" height="10" fill="#D2A966"/>
<rect x="180" y="250" width="10" height="10" fill="#94A77B"/>
<rect x="180" y="240" width="10" height="10" fill="#38D4C9"/>
<path fill-rule="evenodd" clip-rule="evenodd" d="M270 240H280V250H270V240ZM290 270V260V250H280V260V270V280H290H300V270H290Z" fill="#FAA155"/>
<rect x="290" y="260" width="10" height="10" fill="#EC9F63"/>
<rect x="290" y="250" width="10" height="10" fill="#DD8B57"/>
<rect x="290" y="240" width="10" height="10" fill="#C56C2F"/>
<rect x="290" y="230" width="10" height="10" fill="#AB8362"/>
<rect x="190" y="270" width="10" height="10" fill="#F29C4A"/>
<rect x="190" y="260" width="10" height="10" fill="#C8A460"/>
<rect x="190" y="250" width="10" height="10" fill="#C48A52"/>
<rect x="190" y="240" width="10" height="10" fill="#26C8BB"/>
<rect x="190" y="230" width="10" height="10" fill="#38D4C9"/>
<rect x="250" y="270" width="10" height="10" fill="#F48F3E"/>
<rect x="300" y="270" width="10" height="10" fill="#C56D30"/>
<rect x="300" y="260" width="10" height="10" fill="#AB8362"/>
<rect x="300" y="250" width="10" height="10" fill="#C56C2F"/>
<rect x="300" y="240" width="10" height="10" fill="#AB8362"/>
<rect x="150" y="270" width="10" height="10" fill="#97AF7F"/>
<rect x="150" y="260" width="10" height="10" fill="#38D4C9"/>
<path fill-rule="evenodd" clip-rule="evenodd" d="M160 80H60V90V100V110V120V130V140V150H70V160H80V150H90V160H100V150H110V160H120V150H130V140H140V150H150V140H160V130H170V120H160V110H170V100H160V90V80ZM160 100H150V110H160V100ZM150 130H140V140H150V130ZM150 130V120H160V130H150ZM120 150V140H110V150H120ZM100 150H90V140H100V150ZM80 150V140H70V150H80ZM40 140H30V150V160V170V180V190V200V210V220V230V240V250H40V260H50V270H60H70H80H90H100H110H130H140H150V260H160H170V250H180V240H190V230H200V220V210V200V190V180H180V190V200H150V210V220H140H130H110H100H90V210H70V200H60V190H50V180V170H40V160V150V140Z" fill="#54E1D9"/>
<rect x="210" y="260" width="10" height="10" fill="#E79143"/>
<path fill-rule="evenodd" clip-rule="evenodd" d="M220 250H210V260H220H230H240H250H260V250H250H240H230H220Z" fill="#C56C2F"/>
<path fill-rule="evenodd" clip-rule="evenodd" d="M210 150H220V160V170V180V190V200V210V220V230V240V250H218H216H214H212H210H200V240H210V230H200V220H210V210H200V200H210V190H200V180H210V170V160V150Z" fill="#14B7A5"/>
<path fill-rule="evenodd" clip-rule="evenodd" d="M222 190H220V200H222H224H226H228H230V190H228H226H224H222Z" fill="#059683"/>
<path fill-rule="evenodd" clip-rule="evenodd" d="M182 110H180V120H182H184H186H188H190V110H188H186H184H182Z" fill="#059683"/>
<path fill-rule="evenodd" clip-rule="evenodd" d="M200 100H202H204H206H208H210V110V120H208H206H204H202H200V110V100Z" fill="#069582"/>
<path fill-rule="evenodd" clip-rule="evenodd" d="M202 90H200V100H202H204H206H208H210V90H208H206H204H202Z" fill="#827A50"/>
<path fill-rule="evenodd" clip-rule="evenodd" d="M192 80H190V90H192H194H196H198H200V80H198H196H194H192Z" fill="#7E9874"/>
<path fill-rule="evenodd" clip-rule="evenodd" d="M182 70H180V80H182H184H186H188H190V70H188H186H184H182Z" fill="#7E9874"/>
<path fill-rule="evenodd" clip-rule="evenodd" d="M182 60H180V70H182H184H186H188H190V60H188H186H184H182Z" fill="#FEEEE5"/>
<path fill-rule="evenodd" clip-rule="evenodd" d="M182 50H180V60H182H184H186H188H190V50H188H186H184H182Z" fill="#FEEEE5"/>
<path fill-rule="evenodd" clip-rule="evenodd" d="M182 40H180V50H182H184H186H188H190V40H188H186H184H182Z" fill="#FEEEE5"/>
<path fill-rule="evenodd" clip-rule="evenodd" d="M172 30H170V40H172H174H176H178H180V30H178H176H174H172Z" fill="#FEEEE5"/>
<path fill-rule="evenodd" clip-rule="evenodd" d="M180 20H182H184H186H188H190V30H188H186H184H182H180V20ZM200 40H198H196H194H192H190V30H192H194H196H198H200V40ZM200 40H202H204H206H208H210V50V60H212H216H220V70V80V90H218H216H214H212H210V80V70H208H204H200V60V50V40Z" fill="#F38E3D"/>
<path fill-rule="evenodd" clip-rule="evenodd" d="M182 10H180V20H182H184H186H188H190V10H188H186H184H182Z" fill="#DF8541"/>
<path fill-rule="evenodd" clip-rule="evenodd" d="M202 70H200V80H202H204H206H208H210V70H208H206H204H202Z" fill="#EA8134"/>
<path fill-rule="evenodd" clip-rule="evenodd" d="M210 130H212H214H216H218H220V140V150H218H216H214H212H210V140V130ZM220 150H222H224H226H228H230V160V170V180H228H226H224H222H220V170V160V150Z" fill="#059683"/>
<path fill-rule="evenodd" clip-rule="evenodd" d="M212 100H210V110H212H214H216H218H220V100H218H216H214H212Z" fill="#7E9874"/>
<path fill-rule="evenodd" clip-rule="evenodd" d="M212 90H210V100H212H214H216H218H220V90H218H216H214H212Z" fill="#C46C2F"/>
<path fill-rule="evenodd" clip-rule="evenodd" d="M202 80H200V90H202H204H206H208H210V80H208H206H204H202Z" fill="#AB8362"/>
<path fill-rule="evenodd" clip-rule="evenodd" d="M192 70H190V80H192H194H196H198H200V70H198H196H194H192Z" fill="#C56C2F"/>
<path fill-rule="evenodd" clip-rule="evenodd" d="M192 60H190V70H192H194H196H198H200V60H198H196H194H192Z" fill="#F6BD9A"/>
<path fill-rule="evenodd" clip-rule="evenodd" d="M192 50H190V60H192H194H196H198H200V50H198H196H194H192Z" fill="#EA8134"/>
<path fill-rule="evenodd" clip-rule="evenodd" d="M192 40H190V50H192H194H196H198H200V40H198H196H194H192Z" fill="#EA8134"/>
<path fill-rule="evenodd" clip-rule="evenodd" d="M182 30H180V40H182H184H186H188H190V30H188H186H184H182Z" fill="#EA8134"/>
<path fill-rule="evenodd" clip-rule="evenodd" d="M172 20H170V30H172H174H176H178H180V20H178H176H174H172Z" fill="#EA8134"/>
<path fill-rule="evenodd" clip-rule="evenodd" d="M170 0H172H174H176H178H180V10V20H178H176H174H172H170V10V0ZM170 20H160V30V40V50H170V40V30V20Z" fill="#FD9843"/>
<path fill-rule="evenodd" clip-rule="evenodd" d="M162 0H160V10H162H164H166H168H170V0H168H166H164H162Z" fill="#F38E3D"/>
<path fill-rule="evenodd" clip-rule="evenodd" d="M232 240H230V250H232H234H236H238H240V240H238H236H234H232Z" fill="#E28B47"/>
<path fill-rule="evenodd" clip-rule="evenodd" d="M232 230H230V240H232H234H236H238H240V230H238H236H234H232Z" fill="#F0A055"/>
<path fill-rule="evenodd" clip-rule="evenodd" d="M232 220H230V230H232H234H236H238H240V220H238H236H234H232Z" fill="#AB8362"/>
<path fill-rule="evenodd" clip-rule="evenodd" d="M242 240H240V250H242H244H246H248H250V240H248H246H244H242Z" fill="#EE8D45"/>
<path fill-rule="evenodd" clip-rule="evenodd" d="M242 230H240V240H242H244H246H248H250V230H248H246H244H242Z" fill="#F49A4F"/>
<path fill-rule="evenodd" clip-rule="evenodd" d="M242 220H240V230H242H244H246H248H250V220H248H246H244H242Z" fill="#D67E49"/>
<path fill-rule="evenodd" clip-rule="evenodd" d="M252 240H250V250H252H254H256H258H260V240H258H256H254H252Z" fill="#F5944D"/>
<path fill-rule="evenodd" clip-rule="evenodd" d="M252 230H250V240H252H254H256H258H260V230H258H256H254H252Z" fill="#FBA256"/>
<path fill-rule="evenodd" clip-rule="evenodd" d="M252 220H250V230H252H254H256H258H260V220H258H256H254H252Z" fill="#E28B56"/>
<rect x="260" y="250" width="10" height="10" fill="#EF7C30"/>
<rect x="260" y="240" width="10" height="10" fill="#FAA155"/>
<rect x="260" y="230" width="10" height="10" fill="#D29D58"/>
<rect x="260" y="220" width="10" height="10" fill="#B5773D"/>
<path fill-rule="evenodd" clip-rule="evenodd" d="M180 90H182H184H186H188H190V100V110H188H186H184H182H180V100V90ZM50 100H40V110V120V130V140V150V160H50V150V140V130V120V110V100ZM20 240H10V250H20V240ZM10 260H20V270V280H10V270V260ZM50 300H40V310H50V300ZM90 190V200H100V190H130V200H140V190H170V180H172H174H176H178H180V170H182H184H186H188H190V160V150V140V130V120H188H186H184H182H180V130V140V150V160V170H178H176H174H172H170V180H60V170H50V180H60V190H90ZM70 310H60V320H70V310ZM80 310H130V320H80V310ZM222 180H220V190H222H224H226H228H230V180H228H226H224H222ZM220 200H222H224H226H228H230V210V220V230V240V250H228H226H224H222H220V240V230V220V210V200ZM222 120H220V110H218H216H214H212H210V120V130H214H218H222H226H230V120H226H222ZM250 140V130V120H240V130V140H250ZM260 160V150V140H250V150V160H260ZM260 160V170V180V190V200V210V220H270V210V200V190V180V170V160H260Z" fill="#077B66"/>
<rect x="280" y="290" width="10" height="10" fill="#FBA256"/>
<rect x="280" y="280" width="10" height="10" fill="#FC9B4B"/>
<rect x="290" y="280" width="10" height="10" fill="#EE944E"/>
<rect x="300" y="280" width="10" height="10" fill="#AB8363"/>
<rect x="230" y="310" width="10" height="10" fill="#D07E4A"/>
<rect x="230" y="300" width="10" height="10" fill="#F38F40"/>
<path fill-rule="evenodd" clip-rule="evenodd" d="M220 260H230V270H220V260ZM220 280V270H210H200V280V290H190V300H220V310H230V300H280V290V280V270V260H270H260H250H240V270H230V280H220ZM250 280H260V270H250V280Z" fill="#FC9842"/>
<rect x="240" y="310" width="10" height="10" fill="#DB9364"/>
<rect x="240" y="300" width="10" height="10" fill="#F28E3F"/>
<rect x="250" y="310" width="10" height="10" fill="#D07D4A"/>
<rect x="250" y="300" width="10" height="10" fill="#F28E3F"/>
<rect x="260" y="310" width="10" height="10" fill="#DD8B57"/>
<rect x="260" y="300" width="10" height="10" fill="#E58239"/>
<rect x="270" y="310" width="10" height="10" fill="#AB8262"/>
<rect x="270" y="300" width="10" height="10" fill="#EC9F63"/>
<rect x="280" y="300" width="10" height="10" fill="#CE764C"/>
<rect x="290" y="290" width="10" height="10" fill="#C56C2F"/>
<rect x="150" y="310" width="10" height="10" fill="#EEDAC7"/>
<path fill-rule="evenodd" clip-rule="evenodd" d="M150 300H140V310H150H160V300H150Z" fill="#FDFBF8"/>
</svg>
